<mxfile host="app.diagrams.net" modified="2024-04-23T16:59:33.385Z" agent="Mozilla/5.0 (Windows NT 10.0; Win64; x64) AppleWebKit/537.36 (KHTML, like Gecko) Chrome/123.0.0.0 Safari/537.36" etag="1YVJU5hhN5D7PG24hT35" version="24.2.1" type="github">
  <diagram name="Page-1" id="3xJtZ7Cji2GSVL4wYvNk">
    <mxGraphModel dx="2950" dy="2160" grid="1" gridSize="11" guides="1" tooltips="1" connect="1" arrows="1" fold="1" page="1" pageScale="1" pageWidth="850" pageHeight="1100" math="0" shadow="0">
      <root>
        <mxCell id="0" />
        <mxCell id="1" parent="0" />
        <mxCell id="GPM2MwPzyyPLJ8qWmuAz-1" value="User&lt;div&gt;&lt;br&gt;&lt;/div&gt;" style="shape=umlActor;verticalLabelPosition=bottom;verticalAlign=top;html=1;outlineConnect=0;" vertex="1" parent="1">
          <mxGeometry x="176" y="89" width="30" height="60" as="geometry" />
        </mxCell>
        <mxCell id="GPM2MwPzyyPLJ8qWmuAz-33" style="edgeStyle=none;rounded=0;orthogonalLoop=1;jettySize=auto;html=1;exitX=0.5;exitY=0.5;exitDx=0;exitDy=0;exitPerimeter=0;entryX=1;entryY=0.5;entryDx=0;entryDy=0;endArrow=none;endFill=0;" edge="1" parent="1" source="GPM2MwPzyyPLJ8qWmuAz-6" target="GPM2MwPzyyPLJ8qWmuAz-4">
          <mxGeometry relative="1" as="geometry" />
        </mxCell>
        <mxCell id="GPM2MwPzyyPLJ8qWmuAz-6" value="System" style="shape=umlActor;verticalLabelPosition=bottom;verticalAlign=top;html=1;outlineConnect=0;" vertex="1" parent="1">
          <mxGeometry x="462" y="100" width="30" height="60" as="geometry" />
        </mxCell>
        <mxCell id="GPM2MwPzyyPLJ8qWmuAz-162" style="rounded=0;orthogonalLoop=1;jettySize=auto;html=1;exitX=0;exitY=1;exitDx=0;exitDy=0;entryX=1;entryY=0;entryDx=0;entryDy=0;fillColor=#e51400;strokeColor=#B20000;endArrow=none;endFill=0;" edge="1" parent="1" source="GPM2MwPzyyPLJ8qWmuAz-16" target="GPM2MwPzyyPLJ8qWmuAz-34">
          <mxGeometry relative="1" as="geometry" />
        </mxCell>
        <mxCell id="GPM2MwPzyyPLJ8qWmuAz-179" style="edgeStyle=none;rounded=0;orthogonalLoop=1;jettySize=auto;html=1;exitX=0.5;exitY=1;exitDx=0;exitDy=0;entryX=0.5;entryY=0;entryDx=0;entryDy=0;endArrow=none;endFill=0;fillColor=#e51400;strokeColor=#B20000;" edge="1" parent="1" source="GPM2MwPzyyPLJ8qWmuAz-16" target="GPM2MwPzyyPLJ8qWmuAz-95">
          <mxGeometry relative="1" as="geometry" />
        </mxCell>
        <mxCell id="GPM2MwPzyyPLJ8qWmuAz-16" value="" style="swimlane;startSize=0;" vertex="1" parent="1">
          <mxGeometry x="253" y="-11" width="200" height="230" as="geometry" />
        </mxCell>
        <mxCell id="GPM2MwPzyyPLJ8qWmuAz-11" value="Login" style="ellipse;whiteSpace=wrap;html=1;" vertex="1" parent="GPM2MwPzyyPLJ8qWmuAz-16">
          <mxGeometry x="40" y="10" width="120" height="80" as="geometry" />
        </mxCell>
        <mxCell id="GPM2MwPzyyPLJ8qWmuAz-4" value="Home Page" style="ellipse;whiteSpace=wrap;html=1;" vertex="1" parent="GPM2MwPzyyPLJ8qWmuAz-16">
          <mxGeometry x="40" y="130" width="120" height="80" as="geometry" />
        </mxCell>
        <mxCell id="GPM2MwPzyyPLJ8qWmuAz-31" value="" style="endArrow=none;html=1;rounded=0;exitX=0.5;exitY=0;exitDx=0;exitDy=0;" edge="1" parent="GPM2MwPzyyPLJ8qWmuAz-16" source="GPM2MwPzyyPLJ8qWmuAz-4">
          <mxGeometry width="50" height="50" relative="1" as="geometry">
            <mxPoint x="50" y="140" as="sourcePoint" />
            <mxPoint x="100" y="90" as="targetPoint" />
          </mxGeometry>
        </mxCell>
        <mxCell id="GPM2MwPzyyPLJ8qWmuAz-25" value="" style="endArrow=none;html=1;rounded=0;entryX=0;entryY=0.5;entryDx=0;entryDy=0;exitX=0.5;exitY=0.5;exitDx=0;exitDy=0;exitPerimeter=0;" edge="1" parent="1" source="GPM2MwPzyyPLJ8qWmuAz-1" target="GPM2MwPzyyPLJ8qWmuAz-11">
          <mxGeometry width="50" height="50" relative="1" as="geometry">
            <mxPoint x="216" y="119" as="sourcePoint" />
            <mxPoint x="266" y="69" as="targetPoint" />
          </mxGeometry>
        </mxCell>
        <mxCell id="GPM2MwPzyyPLJ8qWmuAz-32" style="edgeStyle=none;rounded=0;orthogonalLoop=1;jettySize=auto;html=1;exitX=1;exitY=0.5;exitDx=0;exitDy=0;entryX=0.5;entryY=0.5;entryDx=0;entryDy=0;entryPerimeter=0;endArrow=none;endFill=0;" edge="1" parent="1" source="GPM2MwPzyyPLJ8qWmuAz-11" target="GPM2MwPzyyPLJ8qWmuAz-6">
          <mxGeometry relative="1" as="geometry">
            <Array as="points">
              <mxPoint x="422" y="90" />
            </Array>
          </mxGeometry>
        </mxCell>
        <mxCell id="GPM2MwPzyyPLJ8qWmuAz-94" value="" style="group" vertex="1" connectable="0" parent="1">
          <mxGeometry x="-594" y="290" width="547" height="535" as="geometry" />
        </mxCell>
        <mxCell id="GPM2MwPzyyPLJ8qWmuAz-34" value="&#xa;LOGIN PAGE" style="swimlane;startSize=0;labelPosition=center;verticalLabelPosition=middle;align=center;verticalAlign=middle;fontStyle=1;fontSize=13;" vertex="1" parent="GPM2MwPzyyPLJ8qWmuAz-94">
          <mxGeometry x="151" width="330" height="535" as="geometry" />
        </mxCell>
        <mxCell id="GPM2MwPzyyPLJ8qWmuAz-47" value="&amp;lt;&amp;lt;include&amp;gt;&amp;gt;" style="edgeStyle=none;rounded=0;orthogonalLoop=1;jettySize=auto;html=1;exitX=1;exitY=0.5;exitDx=0;exitDy=0;entryX=0;entryY=0.5;entryDx=0;entryDy=0;dashed=1;endArrow=open;endFill=0;" edge="1" parent="GPM2MwPzyyPLJ8qWmuAz-34" source="GPM2MwPzyyPLJ8qWmuAz-42" target="GPM2MwPzyyPLJ8qWmuAz-44">
          <mxGeometry relative="1" as="geometry" />
        </mxCell>
        <mxCell id="GPM2MwPzyyPLJ8qWmuAz-49" value="&amp;lt;&amp;lt;include&amp;gt;&amp;gt;" style="edgeStyle=none;rounded=0;orthogonalLoop=1;jettySize=auto;html=1;exitX=1;exitY=0.5;exitDx=0;exitDy=0;entryX=0;entryY=0.5;entryDx=0;entryDy=0;dashed=1;endArrow=open;endFill=0;" edge="1" parent="GPM2MwPzyyPLJ8qWmuAz-34" source="GPM2MwPzyyPLJ8qWmuAz-42" target="GPM2MwPzyyPLJ8qWmuAz-45">
          <mxGeometry relative="1" as="geometry" />
        </mxCell>
        <mxCell id="GPM2MwPzyyPLJ8qWmuAz-42" value="Login" style="ellipse;whiteSpace=wrap;html=1;" vertex="1" parent="GPM2MwPzyyPLJ8qWmuAz-34">
          <mxGeometry x="8" y="30" width="80" height="58" as="geometry" />
        </mxCell>
        <mxCell id="GPM2MwPzyyPLJ8qWmuAz-44" value="Verify T.R ID" style="ellipse;whiteSpace=wrap;html=1;" vertex="1" parent="GPM2MwPzyyPLJ8qWmuAz-34">
          <mxGeometry x="205" width="80" height="58" as="geometry" />
        </mxCell>
        <mxCell id="GPM2MwPzyyPLJ8qWmuAz-45" value="Verify Password" style="ellipse;whiteSpace=wrap;html=1;" vertex="1" parent="GPM2MwPzyyPLJ8qWmuAz-34">
          <mxGeometry x="174" y="58" width="80" height="58" as="geometry" />
        </mxCell>
        <mxCell id="GPM2MwPzyyPLJ8qWmuAz-51" value="&amp;lt;&amp;lt;extend&amp;gt;&amp;gt;" style="edgeStyle=none;rounded=0;orthogonalLoop=1;jettySize=auto;html=1;exitX=0;exitY=0.5;exitDx=0;exitDy=0;entryX=1;entryY=1;entryDx=0;entryDy=0;endArrow=open;endFill=0;dashed=1;" edge="1" parent="GPM2MwPzyyPLJ8qWmuAz-34" source="GPM2MwPzyyPLJ8qWmuAz-46" target="GPM2MwPzyyPLJ8qWmuAz-42">
          <mxGeometry relative="1" as="geometry" />
        </mxCell>
        <mxCell id="GPM2MwPzyyPLJ8qWmuAz-46" value="Display Error" style="ellipse;whiteSpace=wrap;html=1;" vertex="1" parent="GPM2MwPzyyPLJ8qWmuAz-34">
          <mxGeometry x="125" y="117" width="80" height="58" as="geometry" />
        </mxCell>
        <mxCell id="GPM2MwPzyyPLJ8qWmuAz-53" value="&amp;lt;&amp;lt;extend&amp;gt;&amp;gt;" style="edgeStyle=none;rounded=0;orthogonalLoop=1;jettySize=auto;html=1;exitX=0.5;exitY=0;exitDx=0;exitDy=0;entryX=0.5;entryY=1;entryDx=0;entryDy=0;endArrow=open;endFill=0;dashed=1;" edge="1" parent="GPM2MwPzyyPLJ8qWmuAz-34" source="GPM2MwPzyyPLJ8qWmuAz-52" target="GPM2MwPzyyPLJ8qWmuAz-42">
          <mxGeometry relative="1" as="geometry" />
        </mxCell>
        <mxCell id="GPM2MwPzyyPLJ8qWmuAz-52" value="Login with e-Government" style="ellipse;whiteSpace=wrap;html=1;" vertex="1" parent="GPM2MwPzyyPLJ8qWmuAz-34">
          <mxGeometry x="8" y="161" width="80" height="58" as="geometry" />
        </mxCell>
        <mxCell id="GPM2MwPzyyPLJ8qWmuAz-64" value="&lt;div&gt;&lt;br&gt;&lt;/div&gt;&lt;div&gt;&lt;br&gt;&lt;/div&gt;&lt;div&gt;Extension Points&lt;/div&gt;Turkish,English,Arabic,&lt;div&gt;Russian,German&lt;div&gt;&lt;br&gt;&lt;/div&gt;&lt;/div&gt;" style="html=1;shape=mxgraph.sysml.useCaseExtPt;whiteSpace=wrap;align=center;" vertex="1" parent="GPM2MwPzyyPLJ8qWmuAz-34">
          <mxGeometry x="7" y="227" width="146" height="103" as="geometry" />
        </mxCell>
        <mxCell id="GPM2MwPzyyPLJ8qWmuAz-65" value="Choose Language" style="resizable=0;html=1;verticalAlign=middle;align=center;labelBackgroundColor=none;fontStyle=1;" connectable="0" vertex="1" parent="GPM2MwPzyyPLJ8qWmuAz-64">
          <mxGeometry x="73" y="21.887499999999996" as="geometry">
            <mxPoint x="-5" y="-1" as="offset" />
          </mxGeometry>
        </mxCell>
        <mxCell id="GPM2MwPzyyPLJ8qWmuAz-66" value="Turkish" style="ellipse;whiteSpace=wrap;html=1;" vertex="1" parent="GPM2MwPzyyPLJ8qWmuAz-34">
          <mxGeometry x="185" y="205" width="80" height="44" as="geometry" />
        </mxCell>
        <mxCell id="GPM2MwPzyyPLJ8qWmuAz-67" value="English" style="ellipse;whiteSpace=wrap;html=1;" vertex="1" parent="GPM2MwPzyyPLJ8qWmuAz-34">
          <mxGeometry x="205" y="260" width="80" height="41" as="geometry" />
        </mxCell>
        <mxCell id="GPM2MwPzyyPLJ8qWmuAz-68" value="Arabic" style="ellipse;whiteSpace=wrap;html=1;" vertex="1" parent="GPM2MwPzyyPLJ8qWmuAz-34">
          <mxGeometry x="185" y="322" width="80" height="37" as="geometry" />
        </mxCell>
        <mxCell id="GPM2MwPzyyPLJ8qWmuAz-69" value="Russian" style="ellipse;whiteSpace=wrap;html=1;" vertex="1" parent="GPM2MwPzyyPLJ8qWmuAz-34">
          <mxGeometry x="125" y="359" width="80" height="41" as="geometry" />
        </mxCell>
        <mxCell id="GPM2MwPzyyPLJ8qWmuAz-70" value="German" style="ellipse;whiteSpace=wrap;html=1;" vertex="1" parent="GPM2MwPzyyPLJ8qWmuAz-34">
          <mxGeometry x="31" y="370" width="80" height="41" as="geometry" />
        </mxCell>
        <mxCell id="GPM2MwPzyyPLJ8qWmuAz-74" value="&amp;lt;&amp;lt;extend&amp;gt;&amp;gt;" style="edgeStyle=none;rounded=0;orthogonalLoop=1;jettySize=auto;html=1;exitX=0;exitY=0.5;exitDx=0;exitDy=0;entryX=1;entryY=0.5;entryDx=0;entryDy=0;entryPerimeter=0;endArrow=open;endFill=0;dashed=1;" edge="1" parent="GPM2MwPzyyPLJ8qWmuAz-34" source="GPM2MwPzyyPLJ8qWmuAz-66" target="GPM2MwPzyyPLJ8qWmuAz-64">
          <mxGeometry relative="1" as="geometry" />
        </mxCell>
        <mxCell id="GPM2MwPzyyPLJ8qWmuAz-77" value="&amp;lt;&amp;lt;extend&amp;gt;&amp;gt;" style="edgeStyle=none;rounded=0;orthogonalLoop=1;jettySize=auto;html=1;exitX=0;exitY=0.5;exitDx=0;exitDy=0;entryX=1.006;entryY=0.591;entryDx=0;entryDy=0;entryPerimeter=0;endArrow=open;endFill=0;dashed=1;" edge="1" parent="GPM2MwPzyyPLJ8qWmuAz-34" source="GPM2MwPzyyPLJ8qWmuAz-69" target="GPM2MwPzyyPLJ8qWmuAz-64">
          <mxGeometry relative="1" as="geometry">
            <mxPoint x="258" y="274" as="sourcePoint" />
            <mxPoint x="186" y="312" as="targetPoint" />
          </mxGeometry>
        </mxCell>
        <mxCell id="GPM2MwPzyyPLJ8qWmuAz-78" value="&amp;lt;&amp;lt;extend&amp;gt;&amp;gt;" style="edgeStyle=none;rounded=0;orthogonalLoop=1;jettySize=auto;html=1;exitX=0;exitY=0.5;exitDx=0;exitDy=0;endArrow=open;endFill=0;dashed=1;entryX=0.5;entryY=1;entryDx=0;entryDy=0;entryPerimeter=0;" edge="1" parent="GPM2MwPzyyPLJ8qWmuAz-34" source="GPM2MwPzyyPLJ8qWmuAz-70" target="GPM2MwPzyyPLJ8qWmuAz-64">
          <mxGeometry relative="1" as="geometry">
            <mxPoint x="269" y="285" as="sourcePoint" />
            <mxPoint x="86" y="337" as="targetPoint" />
          </mxGeometry>
        </mxCell>
        <mxCell id="GPM2MwPzyyPLJ8qWmuAz-80" value="Sign up" style="ellipse;whiteSpace=wrap;html=1;" vertex="1" parent="GPM2MwPzyyPLJ8qWmuAz-34">
          <mxGeometry x="34" y="430" width="140" height="70" as="geometry" />
        </mxCell>
        <mxCell id="GPM2MwPzyyPLJ8qWmuAz-81" style="edgeStyle=none;rounded=0;orthogonalLoop=1;jettySize=auto;html=1;exitX=0.5;exitY=0.5;exitDx=0;exitDy=0;exitPerimeter=0;entryX=0;entryY=0.5;entryDx=0;entryDy=0;endArrow=none;endFill=0;" edge="1" parent="GPM2MwPzyyPLJ8qWmuAz-94" source="GPM2MwPzyyPLJ8qWmuAz-36" target="GPM2MwPzyyPLJ8qWmuAz-80">
          <mxGeometry relative="1" as="geometry" />
        </mxCell>
        <mxCell id="GPM2MwPzyyPLJ8qWmuAz-36" value="New User" style="shape=umlActor;verticalLabelPosition=bottom;verticalAlign=top;html=1;outlineConnect=0;" vertex="1" parent="GPM2MwPzyyPLJ8qWmuAz-94">
          <mxGeometry x="99" y="392" width="30" height="60" as="geometry" />
        </mxCell>
        <mxCell id="GPM2MwPzyyPLJ8qWmuAz-91" style="edgeStyle=none;rounded=0;orthogonalLoop=1;jettySize=auto;html=1;exitX=0.5;exitY=0;exitDx=0;exitDy=0;exitPerimeter=0;entryX=0;entryY=0.5;entryDx=0;entryDy=0;endArrow=none;endFill=0;" edge="1" parent="GPM2MwPzyyPLJ8qWmuAz-94" source="GPM2MwPzyyPLJ8qWmuAz-39" target="GPM2MwPzyyPLJ8qWmuAz-42">
          <mxGeometry relative="1" as="geometry" />
        </mxCell>
        <mxCell id="GPM2MwPzyyPLJ8qWmuAz-39" value="Registered User" style="shape=umlActor;verticalLabelPosition=bottom;verticalAlign=top;html=1;outlineConnect=0;" vertex="1" parent="GPM2MwPzyyPLJ8qWmuAz-94">
          <mxGeometry x="88" y="227" width="30" height="60" as="geometry" />
        </mxCell>
        <mxCell id="GPM2MwPzyyPLJ8qWmuAz-55" value="System&lt;div&gt;&lt;br&gt;&lt;/div&gt;" style="shape=umlActor;verticalLabelPosition=bottom;verticalAlign=top;html=1;outlineConnect=0;" vertex="1" parent="GPM2MwPzyyPLJ8qWmuAz-94">
          <mxGeometry x="517" y="326" width="30" height="60" as="geometry" />
        </mxCell>
        <mxCell id="GPM2MwPzyyPLJ8qWmuAz-56" style="edgeStyle=none;rounded=0;orthogonalLoop=1;jettySize=auto;html=1;exitX=1;exitY=0.5;exitDx=0;exitDy=0;entryX=0.5;entryY=0.5;entryDx=0;entryDy=0;entryPerimeter=0;endArrow=none;endFill=0;" edge="1" parent="GPM2MwPzyyPLJ8qWmuAz-94" source="GPM2MwPzyyPLJ8qWmuAz-44" target="GPM2MwPzyyPLJ8qWmuAz-55">
          <mxGeometry relative="1" as="geometry" />
        </mxCell>
        <mxCell id="GPM2MwPzyyPLJ8qWmuAz-58" style="edgeStyle=none;rounded=0;orthogonalLoop=1;jettySize=auto;html=1;exitX=1;exitY=0.5;exitDx=0;exitDy=0;entryX=0.5;entryY=0.5;entryDx=0;entryDy=0;entryPerimeter=0;endArrow=none;endFill=0;" edge="1" parent="GPM2MwPzyyPLJ8qWmuAz-94" source="GPM2MwPzyyPLJ8qWmuAz-45" target="GPM2MwPzyyPLJ8qWmuAz-55">
          <mxGeometry relative="1" as="geometry" />
        </mxCell>
        <mxCell id="GPM2MwPzyyPLJ8qWmuAz-59" style="edgeStyle=none;rounded=0;orthogonalLoop=1;jettySize=auto;html=1;exitX=1;exitY=0.5;exitDx=0;exitDy=0;entryX=0.5;entryY=0.5;entryDx=0;entryDy=0;entryPerimeter=0;endArrow=none;endFill=0;" edge="1" parent="GPM2MwPzyyPLJ8qWmuAz-94" source="GPM2MwPzyyPLJ8qWmuAz-46" target="GPM2MwPzyyPLJ8qWmuAz-55">
          <mxGeometry relative="1" as="geometry" />
        </mxCell>
        <mxCell id="GPM2MwPzyyPLJ8qWmuAz-75" value="&amp;lt;&amp;lt;extend&amp;gt;&amp;gt;" style="edgeStyle=none;rounded=0;orthogonalLoop=1;jettySize=auto;html=1;exitX=0;exitY=0.5;exitDx=0;exitDy=0;endArrow=open;endFill=0;dashed=1;" edge="1" parent="GPM2MwPzyyPLJ8qWmuAz-94" source="GPM2MwPzyyPLJ8qWmuAz-67">
          <mxGeometry relative="1" as="geometry">
            <mxPoint x="392" y="252" as="sourcePoint" />
            <mxPoint x="308" y="282" as="targetPoint" />
          </mxGeometry>
        </mxCell>
        <mxCell id="GPM2MwPzyyPLJ8qWmuAz-76" value="&amp;lt;&amp;lt;extend&amp;gt;&amp;gt;" style="edgeStyle=none;rounded=0;orthogonalLoop=1;jettySize=auto;html=1;exitX=0;exitY=0.5;exitDx=0;exitDy=0;endArrow=open;endFill=0;dashed=1;" edge="1" parent="GPM2MwPzyyPLJ8qWmuAz-94" source="GPM2MwPzyyPLJ8qWmuAz-68">
          <mxGeometry relative="1" as="geometry">
            <mxPoint x="403" y="263" as="sourcePoint" />
            <mxPoint x="308" y="282" as="targetPoint" />
          </mxGeometry>
        </mxCell>
        <mxCell id="GPM2MwPzyyPLJ8qWmuAz-82" style="edgeStyle=none;rounded=0;orthogonalLoop=1;jettySize=auto;html=1;exitX=1;exitY=0.5;exitDx=0;exitDy=0;entryX=0.5;entryY=0.5;entryDx=0;entryDy=0;entryPerimeter=0;endArrow=none;endFill=0;" edge="1" parent="GPM2MwPzyyPLJ8qWmuAz-94" source="GPM2MwPzyyPLJ8qWmuAz-80" target="GPM2MwPzyyPLJ8qWmuAz-55">
          <mxGeometry relative="1" as="geometry" />
        </mxCell>
        <mxCell id="GPM2MwPzyyPLJ8qWmuAz-86" style="edgeStyle=elbowEdgeStyle;rounded=0;orthogonalLoop=1;jettySize=auto;html=1;entryX=0.5;entryY=0.5;entryDx=0;entryDy=0;entryPerimeter=0;" edge="1" parent="GPM2MwPzyyPLJ8qWmuAz-94">
          <mxGeometry relative="1" as="geometry">
            <mxPoint x="109" y="425" as="sourcePoint" />
            <mxPoint x="7" y="334" as="targetPoint" />
          </mxGeometry>
        </mxCell>
        <mxCell id="GPM2MwPzyyPLJ8qWmuAz-89" style="edgeStyle=elbowEdgeStyle;rounded=0;orthogonalLoop=1;jettySize=auto;html=1;exitX=0.5;exitY=0.5;exitDx=0;exitDy=0;exitPerimeter=0;entryX=0.5;entryY=0.5;entryDx=0;entryDy=0;entryPerimeter=0;endArrow=none;endFill=0;" edge="1" parent="GPM2MwPzyyPLJ8qWmuAz-94">
          <mxGeometry relative="1" as="geometry">
            <mxPoint x="102" y="257" as="sourcePoint" />
            <mxPoint x="14" y="334" as="targetPoint" />
          </mxGeometry>
        </mxCell>
        <mxCell id="GPM2MwPzyyPLJ8qWmuAz-92" style="edgeStyle=none;rounded=0;orthogonalLoop=1;jettySize=auto;html=1;exitX=0.5;exitY=0.5;exitDx=0;exitDy=0;exitPerimeter=0;entryX=0;entryY=0.5;entryDx=0;entryDy=0;entryPerimeter=0;endArrow=none;endFill=0;" edge="1" parent="GPM2MwPzyyPLJ8qWmuAz-94" source="GPM2MwPzyyPLJ8qWmuAz-39" target="GPM2MwPzyyPLJ8qWmuAz-64">
          <mxGeometry relative="1" as="geometry" />
        </mxCell>
        <mxCell id="GPM2MwPzyyPLJ8qWmuAz-93" style="edgeStyle=none;rounded=0;orthogonalLoop=1;jettySize=auto;html=1;exitX=0.5;exitY=0.5;exitDx=0;exitDy=0;exitPerimeter=0;entryX=0;entryY=0.5;entryDx=0;entryDy=0;entryPerimeter=0;endArrow=none;endFill=0;" edge="1" parent="GPM2MwPzyyPLJ8qWmuAz-94" source="GPM2MwPzyyPLJ8qWmuAz-36" target="GPM2MwPzyyPLJ8qWmuAz-64">
          <mxGeometry relative="1" as="geometry" />
        </mxCell>
        <mxCell id="GPM2MwPzyyPLJ8qWmuAz-35" value="User" style="shape=umlActor;verticalLabelPosition=bottom;verticalAlign=top;html=1;outlineConnect=0;" vertex="1" parent="1">
          <mxGeometry x="-602" y="594" width="30" height="60" as="geometry" />
        </mxCell>
        <mxCell id="GPM2MwPzyyPLJ8qWmuAz-149" value="" style="group" vertex="1" connectable="0" parent="1">
          <mxGeometry y="286" width="701" height="623" as="geometry" />
        </mxCell>
        <mxCell id="GPM2MwPzyyPLJ8qWmuAz-95" value="&#xa;HOME PAGE" style="swimlane;startSize=0;" vertex="1" parent="GPM2MwPzyyPLJ8qWmuAz-149">
          <mxGeometry x="77" width="550" height="623" as="geometry" />
        </mxCell>
        <mxCell id="GPM2MwPzyyPLJ8qWmuAz-98" value="Make a Appointment" style="ellipse;whiteSpace=wrap;html=1;" vertex="1" parent="GPM2MwPzyyPLJ8qWmuAz-95">
          <mxGeometry x="185" y="33" width="119" height="59" as="geometry" />
        </mxCell>
        <mxCell id="GPM2MwPzyyPLJ8qWmuAz-100" value="Family Doctor" style="ellipse;whiteSpace=wrap;html=1;" vertex="1" parent="GPM2MwPzyyPLJ8qWmuAz-95">
          <mxGeometry x="363" y="95" width="119" height="59" as="geometry" />
        </mxCell>
        <mxCell id="GPM2MwPzyyPLJ8qWmuAz-101" value="Vaccination" style="ellipse;whiteSpace=wrap;html=1;" vertex="1" parent="GPM2MwPzyyPLJ8qWmuAz-95">
          <mxGeometry x="231" y="154" width="119" height="59" as="geometry" />
        </mxCell>
        <mxCell id="GPM2MwPzyyPLJ8qWmuAz-102" value="Hospital" style="ellipse;whiteSpace=wrap;html=1;" vertex="1" parent="GPM2MwPzyyPLJ8qWmuAz-95">
          <mxGeometry x="54" y="143" width="119" height="59" as="geometry" />
        </mxCell>
        <mxCell id="GPM2MwPzyyPLJ8qWmuAz-104" value="&lt;div&gt;&lt;br&gt;&lt;/div&gt;&lt;div&gt;&lt;br&gt;&lt;/div&gt;General Search,&lt;div&gt;Remote&amp;nbsp;&lt;span style=&quot;background-color: initial;&quot;&gt;Assesment,&lt;/span&gt;&lt;/div&gt;&lt;div&gt;&lt;span style=&quot;background-color: initial;&quot;&gt;Search by Location&lt;/span&gt;&lt;/div&gt;" style="html=1;shape=mxgraph.sysml.useCaseExtPt;whiteSpace=wrap;align=center;" vertex="1" parent="GPM2MwPzyyPLJ8qWmuAz-95">
          <mxGeometry x="33" y="266" width="160" height="99" as="geometry" />
        </mxCell>
        <mxCell id="GPM2MwPzyyPLJ8qWmuAz-105" value="Select Search Type" style="resizable=0;html=1;verticalAlign=middle;align=center;labelBackgroundColor=none;fontStyle=1;" connectable="0" vertex="1" parent="GPM2MwPzyyPLJ8qWmuAz-104">
          <mxGeometry x="87" y="24.75" as="geometry">
            <mxPoint x="-8" y="-4" as="offset" />
          </mxGeometry>
        </mxCell>
        <mxCell id="GPM2MwPzyyPLJ8qWmuAz-118" value="&amp;lt;&amp;lt;include&amp;gt;&amp;gt;" style="edgeStyle=none;rounded=0;orthogonalLoop=1;jettySize=auto;html=1;exitX=0.5;exitY=1;exitDx=0;exitDy=0;entryX=0;entryY=0.5;entryDx=0;entryDy=0;dashed=1;endArrow=open;endFill=0;" edge="1" parent="GPM2MwPzyyPLJ8qWmuAz-95" source="GPM2MwPzyyPLJ8qWmuAz-106" target="GPM2MwPzyyPLJ8qWmuAz-109">
          <mxGeometry relative="1" as="geometry" />
        </mxCell>
        <mxCell id="GPM2MwPzyyPLJ8qWmuAz-106" value="General Search" style="ellipse;whiteSpace=wrap;html=1;" vertex="1" parent="GPM2MwPzyyPLJ8qWmuAz-95">
          <mxGeometry x="22" y="403" width="99" height="48" as="geometry" />
        </mxCell>
        <mxCell id="GPM2MwPzyyPLJ8qWmuAz-107" value="Remote Assesment" style="ellipse;whiteSpace=wrap;html=1;" vertex="1" parent="GPM2MwPzyyPLJ8qWmuAz-95">
          <mxGeometry x="132" y="403" width="99" height="48" as="geometry" />
        </mxCell>
        <mxCell id="GPM2MwPzyyPLJ8qWmuAz-108" value="by Location" style="ellipse;whiteSpace=wrap;html=1;" vertex="1" parent="GPM2MwPzyyPLJ8qWmuAz-95">
          <mxGeometry x="251" y="403" width="99" height="48" as="geometry" />
        </mxCell>
        <mxCell id="GPM2MwPzyyPLJ8qWmuAz-109" value="Fill the Form" style="ellipse;whiteSpace=wrap;html=1;" vertex="1" parent="GPM2MwPzyyPLJ8qWmuAz-95">
          <mxGeometry x="64" y="480" width="99" height="48" as="geometry" />
        </mxCell>
        <mxCell id="GPM2MwPzyyPLJ8qWmuAz-110" value="Choose Others" style="ellipse;whiteSpace=wrap;html=1;" vertex="1" parent="GPM2MwPzyyPLJ8qWmuAz-95">
          <mxGeometry x="22" y="568" width="99" height="48" as="geometry" />
        </mxCell>
        <mxCell id="GPM2MwPzyyPLJ8qWmuAz-111" value="Choose City" style="ellipse;whiteSpace=wrap;html=1;" vertex="1" parent="GPM2MwPzyyPLJ8qWmuAz-95">
          <mxGeometry x="161" y="568" width="99" height="48" as="geometry" />
        </mxCell>
        <mxCell id="GPM2MwPzyyPLJ8qWmuAz-112" value="Choose Clinic" style="ellipse;whiteSpace=wrap;html=1;" vertex="1" parent="GPM2MwPzyyPLJ8qWmuAz-95">
          <mxGeometry x="286" y="568" width="99" height="48" as="geometry" />
        </mxCell>
        <mxCell id="GPM2MwPzyyPLJ8qWmuAz-113" value="&amp;lt;&amp;lt;extend&amp;gt;&amp;gt;" style="edgeStyle=none;rounded=0;orthogonalLoop=1;jettySize=auto;html=1;exitX=0.5;exitY=0;exitDx=0;exitDy=0;entryX=0.5;entryY=1;entryDx=0;entryDy=0;entryPerimeter=0;endArrow=open;endFill=0;dashed=1;" edge="1" parent="GPM2MwPzyyPLJ8qWmuAz-95" source="GPM2MwPzyyPLJ8qWmuAz-106" target="GPM2MwPzyyPLJ8qWmuAz-104">
          <mxGeometry relative="1" as="geometry" />
        </mxCell>
        <mxCell id="GPM2MwPzyyPLJ8qWmuAz-115" value="&amp;lt;&amp;lt;extend&amp;gt;&amp;gt;" style="edgeStyle=none;rounded=0;orthogonalLoop=1;jettySize=auto;html=1;exitX=0.5;exitY=0;exitDx=0;exitDy=0;entryX=0.682;entryY=1.019;entryDx=0;entryDy=0;entryPerimeter=0;endArrow=open;endFill=0;dashed=1;" edge="1" parent="GPM2MwPzyyPLJ8qWmuAz-95" source="GPM2MwPzyyPLJ8qWmuAz-107" target="GPM2MwPzyyPLJ8qWmuAz-104">
          <mxGeometry relative="1" as="geometry">
            <mxPoint x="94" y="425" as="sourcePoint" />
            <mxPoint x="135" y="387" as="targetPoint" />
          </mxGeometry>
        </mxCell>
        <mxCell id="GPM2MwPzyyPLJ8qWmuAz-116" value="&amp;lt;&amp;lt;extend&amp;gt;&amp;gt;" style="edgeStyle=none;rounded=0;orthogonalLoop=1;jettySize=auto;html=1;exitX=0;exitY=0;exitDx=0;exitDy=0;entryX=0.855;entryY=0.855;entryDx=0;entryDy=0;entryPerimeter=0;endArrow=open;endFill=0;dashed=1;" edge="1" parent="GPM2MwPzyyPLJ8qWmuAz-95" source="GPM2MwPzyyPLJ8qWmuAz-108" target="GPM2MwPzyyPLJ8qWmuAz-104">
          <mxGeometry relative="1" as="geometry">
            <mxPoint x="105" y="436" as="sourcePoint" />
            <mxPoint x="146" y="398" as="targetPoint" />
          </mxGeometry>
        </mxCell>
        <mxCell id="GPM2MwPzyyPLJ8qWmuAz-117" value="&amp;lt;&amp;lt;extend&amp;gt;&amp;gt;" style="edgeStyle=none;rounded=0;orthogonalLoop=1;jettySize=auto;html=1;exitX=0.5;exitY=0;exitDx=0;exitDy=0;entryX=0.5;entryY=1;entryDx=0;entryDy=0;endArrow=open;endFill=0;dashed=1;" edge="1" parent="GPM2MwPzyyPLJ8qWmuAz-95" source="GPM2MwPzyyPLJ8qWmuAz-110" target="GPM2MwPzyyPLJ8qWmuAz-109">
          <mxGeometry relative="1" as="geometry">
            <mxPoint x="116" y="447" as="sourcePoint" />
            <mxPoint x="157" y="409" as="targetPoint" />
          </mxGeometry>
        </mxCell>
        <mxCell id="GPM2MwPzyyPLJ8qWmuAz-120" value="&amp;lt;&amp;lt;include&amp;gt;&amp;gt;" style="edgeStyle=none;rounded=0;orthogonalLoop=1;jettySize=auto;html=1;exitX=0.5;exitY=1;exitDx=0;exitDy=0;entryX=1;entryY=0.5;entryDx=0;entryDy=0;dashed=1;endArrow=open;endFill=0;" edge="1" parent="GPM2MwPzyyPLJ8qWmuAz-95" source="GPM2MwPzyyPLJ8qWmuAz-107" target="GPM2MwPzyyPLJ8qWmuAz-109">
          <mxGeometry relative="1" as="geometry">
            <mxPoint x="83" y="462" as="sourcePoint" />
            <mxPoint x="110" y="480" as="targetPoint" />
          </mxGeometry>
        </mxCell>
        <mxCell id="GPM2MwPzyyPLJ8qWmuAz-121" value="&amp;lt;&amp;lt;include&amp;gt;&amp;gt;" style="edgeStyle=none;rounded=0;orthogonalLoop=1;jettySize=auto;html=1;exitX=0.662;exitY=0.976;exitDx=0;exitDy=0;entryX=0.5;entryY=0;entryDx=0;entryDy=0;exitPerimeter=0;dashed=1;endArrow=open;endFill=0;" edge="1" parent="GPM2MwPzyyPLJ8qWmuAz-95" source="GPM2MwPzyyPLJ8qWmuAz-109" target="GPM2MwPzyyPLJ8qWmuAz-111">
          <mxGeometry relative="1" as="geometry">
            <mxPoint x="193" y="462" as="sourcePoint" />
            <mxPoint x="174" y="515" as="targetPoint" />
          </mxGeometry>
        </mxCell>
        <mxCell id="GPM2MwPzyyPLJ8qWmuAz-123" value="&amp;lt;&amp;lt;include&amp;gt;&amp;gt;" style="edgeStyle=none;rounded=0;orthogonalLoop=1;jettySize=auto;html=1;exitX=0.5;exitY=1;exitDx=0;exitDy=0;entryX=0.5;entryY=0;entryDx=0;entryDy=0;dashed=1;endArrow=open;endFill=0;" edge="1" parent="GPM2MwPzyyPLJ8qWmuAz-95" source="GPM2MwPzyyPLJ8qWmuAz-108" target="GPM2MwPzyyPLJ8qWmuAz-112">
          <mxGeometry relative="1" as="geometry">
            <mxPoint x="204" y="473" as="sourcePoint" />
            <mxPoint x="185" y="526" as="targetPoint" />
          </mxGeometry>
        </mxCell>
        <mxCell id="GPM2MwPzyyPLJ8qWmuAz-124" value="&amp;lt;&amp;lt;include&amp;gt;&amp;gt;" style="edgeStyle=none;rounded=0;orthogonalLoop=1;jettySize=auto;html=1;exitX=1;exitY=0.5;exitDx=0;exitDy=0;entryX=0;entryY=0;entryDx=0;entryDy=0;dashed=1;endArrow=open;endFill=0;" edge="1" parent="GPM2MwPzyyPLJ8qWmuAz-95" source="GPM2MwPzyyPLJ8qWmuAz-109" target="GPM2MwPzyyPLJ8qWmuAz-112">
          <mxGeometry relative="1" as="geometry">
            <mxPoint x="215" y="484" as="sourcePoint" />
            <mxPoint x="196" y="537" as="targetPoint" />
          </mxGeometry>
        </mxCell>
        <mxCell id="GPM2MwPzyyPLJ8qWmuAz-140" style="edgeStyle=none;rounded=0;orthogonalLoop=1;jettySize=auto;html=1;exitX=1;exitY=0.5;exitDx=0;exitDy=0;entryX=0;entryY=0.5;entryDx=0;entryDy=0;endArrow=none;endFill=0;" edge="1" parent="GPM2MwPzyyPLJ8qWmuAz-95" source="GPM2MwPzyyPLJ8qWmuAz-125" target="GPM2MwPzyyPLJ8qWmuAz-127">
          <mxGeometry relative="1" as="geometry" />
        </mxCell>
        <mxCell id="GPM2MwPzyyPLJ8qWmuAz-125" value="Choose a Hospital" style="ellipse;whiteSpace=wrap;html=1;" vertex="1" parent="GPM2MwPzyyPLJ8qWmuAz-95">
          <mxGeometry x="231" y="275" width="119" height="59" as="geometry" />
        </mxCell>
        <mxCell id="GPM2MwPzyyPLJ8qWmuAz-126" value="Approve Appointment" style="ellipse;whiteSpace=wrap;html=1;" vertex="1" parent="GPM2MwPzyyPLJ8qWmuAz-95">
          <mxGeometry x="396" y="334" width="119" height="59" as="geometry" />
        </mxCell>
        <mxCell id="GPM2MwPzyyPLJ8qWmuAz-141" style="edgeStyle=none;rounded=0;orthogonalLoop=1;jettySize=auto;html=1;exitX=0.5;exitY=1;exitDx=0;exitDy=0;entryX=0.5;entryY=0;entryDx=0;entryDy=0;endArrow=none;endFill=0;" edge="1" parent="GPM2MwPzyyPLJ8qWmuAz-95" source="GPM2MwPzyyPLJ8qWmuAz-127" target="GPM2MwPzyyPLJ8qWmuAz-126">
          <mxGeometry relative="1" as="geometry" />
        </mxCell>
        <mxCell id="GPM2MwPzyyPLJ8qWmuAz-127" value="Choose a Doctor" style="ellipse;whiteSpace=wrap;html=1;" vertex="1" parent="GPM2MwPzyyPLJ8qWmuAz-95">
          <mxGeometry x="385" y="235" width="119" height="59" as="geometry" />
        </mxCell>
        <mxCell id="GPM2MwPzyyPLJ8qWmuAz-130" value="Get a Report" style="ellipse;whiteSpace=wrap;html=1;" vertex="1" parent="GPM2MwPzyyPLJ8qWmuAz-95">
          <mxGeometry x="11" y="11" width="140" height="66" as="geometry" />
        </mxCell>
        <mxCell id="GPM2MwPzyyPLJ8qWmuAz-135" value="&amp;lt;&amp;lt;extend&amp;gt;&amp;gt;" style="edgeStyle=none;rounded=0;orthogonalLoop=1;jettySize=auto;html=1;exitX=0;exitY=0.5;exitDx=0;exitDy=0;entryX=1;entryY=0.5;entryDx=0;entryDy=0;endArrow=open;endFill=0;dashed=1;" edge="1" parent="GPM2MwPzyyPLJ8qWmuAz-95" source="GPM2MwPzyyPLJ8qWmuAz-100" target="GPM2MwPzyyPLJ8qWmuAz-98">
          <mxGeometry relative="1" as="geometry">
            <mxPoint x="310" y="370" as="sourcePoint" />
            <mxPoint x="270" y="334" as="targetPoint" />
          </mxGeometry>
        </mxCell>
        <mxCell id="GPM2MwPzyyPLJ8qWmuAz-136" value="&amp;lt;&amp;lt;extend&amp;gt;&amp;gt;" style="edgeStyle=none;rounded=0;orthogonalLoop=1;jettySize=auto;html=1;exitX=0.5;exitY=0;exitDx=0;exitDy=0;entryX=1;entryY=1;entryDx=0;entryDy=0;endArrow=open;endFill=0;dashed=1;" edge="1" parent="GPM2MwPzyyPLJ8qWmuAz-95" source="GPM2MwPzyyPLJ8qWmuAz-101" target="GPM2MwPzyyPLJ8qWmuAz-98">
          <mxGeometry relative="1" as="geometry">
            <mxPoint x="347.99999999999363" y="139.5" as="sourcePoint" />
            <mxPoint x="298" y="318" as="targetPoint" />
          </mxGeometry>
        </mxCell>
        <mxCell id="GPM2MwPzyyPLJ8qWmuAz-137" value="&amp;lt;&amp;lt;extend&amp;gt;&amp;gt;" style="edgeStyle=none;rounded=0;orthogonalLoop=1;jettySize=auto;html=1;entryX=0.5;entryY=1;entryDx=0;entryDy=0;endArrow=open;endFill=0;dashed=1;exitX=0.5;exitY=0;exitDx=0;exitDy=0;" edge="1" parent="GPM2MwPzyyPLJ8qWmuAz-95" source="GPM2MwPzyyPLJ8qWmuAz-102" target="GPM2MwPzyyPLJ8qWmuAz-98">
          <mxGeometry relative="1" as="geometry">
            <mxPoint x="226.3195612777913" y="143.05649022233" as="sourcePoint" />
            <mxPoint x="309" y="329" as="targetPoint" />
          </mxGeometry>
        </mxCell>
        <mxCell id="GPM2MwPzyyPLJ8qWmuAz-139" style="edgeStyle=none;rounded=0;orthogonalLoop=1;jettySize=auto;html=1;exitX=0;exitY=0.5;exitDx=0;exitDy=0;entryX=0.993;entryY=0.395;entryDx=0;entryDy=0;entryPerimeter=0;endArrow=none;endFill=0;" edge="1" parent="GPM2MwPzyyPLJ8qWmuAz-95" source="GPM2MwPzyyPLJ8qWmuAz-125" target="GPM2MwPzyyPLJ8qWmuAz-104">
          <mxGeometry relative="1" as="geometry" />
        </mxCell>
        <mxCell id="GPM2MwPzyyPLJ8qWmuAz-143" value="&amp;lt;&amp;lt;include&amp;gt;&amp;gt;" style="edgeStyle=none;rounded=0;orthogonalLoop=1;jettySize=auto;html=1;exitX=0.5;exitY=1;exitDx=0;exitDy=0;entryX=0.5;entryY=0;entryDx=0;entryDy=0;dashed=1;entryPerimeter=0;endArrow=open;endFill=0;" edge="1" parent="GPM2MwPzyyPLJ8qWmuAz-95" source="GPM2MwPzyyPLJ8qWmuAz-102" target="GPM2MwPzyyPLJ8qWmuAz-104">
          <mxGeometry relative="1" as="geometry">
            <mxPoint x="193" y="462" as="sourcePoint" />
            <mxPoint x="174" y="515" as="targetPoint" />
          </mxGeometry>
        </mxCell>
        <mxCell id="GPM2MwPzyyPLJ8qWmuAz-97" style="edgeStyle=none;rounded=0;orthogonalLoop=1;jettySize=auto;html=1;exitX=1;exitY=0.5;exitDx=0;exitDy=0;" edge="1" parent="GPM2MwPzyyPLJ8qWmuAz-149" source="GPM2MwPzyyPLJ8qWmuAz-95" target="GPM2MwPzyyPLJ8qWmuAz-95">
          <mxGeometry relative="1" as="geometry" />
        </mxCell>
        <mxCell id="GPM2MwPzyyPLJ8qWmuAz-132" style="edgeStyle=none;rounded=0;orthogonalLoop=1;jettySize=auto;html=1;exitX=0.5;exitY=0.5;exitDx=0;exitDy=0;exitPerimeter=0;entryX=0;entryY=0.5;entryDx=0;entryDy=0;endArrow=none;endFill=0;" edge="1" parent="GPM2MwPzyyPLJ8qWmuAz-149" source="GPM2MwPzyyPLJ8qWmuAz-131" target="GPM2MwPzyyPLJ8qWmuAz-130">
          <mxGeometry relative="1" as="geometry" />
        </mxCell>
        <mxCell id="GPM2MwPzyyPLJ8qWmuAz-133" style="edgeStyle=none;rounded=0;orthogonalLoop=1;jettySize=auto;html=1;exitX=0.5;exitY=0.5;exitDx=0;exitDy=0;exitPerimeter=0;entryX=0;entryY=0.5;entryDx=0;entryDy=0;endArrow=none;endFill=0;" edge="1" parent="GPM2MwPzyyPLJ8qWmuAz-149" source="GPM2MwPzyyPLJ8qWmuAz-131" target="GPM2MwPzyyPLJ8qWmuAz-98">
          <mxGeometry relative="1" as="geometry" />
        </mxCell>
        <mxCell id="GPM2MwPzyyPLJ8qWmuAz-131" value="User" style="shape=umlActor;html=1;verticalLabelPosition=bottom;verticalAlign=top;align=center;" vertex="1" parent="GPM2MwPzyyPLJ8qWmuAz-149">
          <mxGeometry y="176" width="30" height="60" as="geometry" />
        </mxCell>
        <mxCell id="GPM2MwPzyyPLJ8qWmuAz-144" value="System" style="shape=umlActor;html=1;verticalLabelPosition=bottom;verticalAlign=top;align=center;" vertex="1" parent="GPM2MwPzyyPLJ8qWmuAz-149">
          <mxGeometry x="671" y="220" width="30" height="60" as="geometry" />
        </mxCell>
        <mxCell id="GPM2MwPzyyPLJ8qWmuAz-145" style="edgeStyle=none;rounded=0;orthogonalLoop=1;jettySize=auto;html=1;exitX=1;exitY=0.5;exitDx=0;exitDy=0;entryX=0.5;entryY=0.5;entryDx=0;entryDy=0;entryPerimeter=0;endArrow=none;endFill=0;" edge="1" parent="GPM2MwPzyyPLJ8qWmuAz-149" source="GPM2MwPzyyPLJ8qWmuAz-126" target="GPM2MwPzyyPLJ8qWmuAz-144">
          <mxGeometry relative="1" as="geometry" />
        </mxCell>
        <mxCell id="GPM2MwPzyyPLJ8qWmuAz-148" style="edgeStyle=orthogonalEdgeStyle;rounded=0;orthogonalLoop=1;jettySize=auto;html=1;exitX=0.5;exitY=0;exitDx=0;exitDy=0;entryX=0.5;entryY=0.5;entryDx=0;entryDy=0;entryPerimeter=0;elbow=vertical;curved=1;" edge="1" parent="GPM2MwPzyyPLJ8qWmuAz-149" source="GPM2MwPzyyPLJ8qWmuAz-130" target="GPM2MwPzyyPLJ8qWmuAz-144">
          <mxGeometry relative="1" as="geometry">
            <Array as="points">
              <mxPoint x="686" y="11" />
            </Array>
          </mxGeometry>
        </mxCell>
        <mxCell id="GPM2MwPzyyPLJ8qWmuAz-167" style="edgeStyle=none;rounded=0;orthogonalLoop=1;jettySize=auto;html=1;exitX=0;exitY=1;exitDx=0;exitDy=0;entryX=1;entryY=0.75;entryDx=0;entryDy=0;fillColor=#e51400;strokeColor=#B20000;endArrow=none;endFill=0;" edge="1" parent="1" source="GPM2MwPzyyPLJ8qWmuAz-151" target="GPM2MwPzyyPLJ8qWmuAz-95">
          <mxGeometry relative="1" as="geometry" />
        </mxCell>
        <mxCell id="GPM2MwPzyyPLJ8qWmuAz-151" value="&#xa;REPORT" style="swimlane;startSize=0;" vertex="1" parent="1">
          <mxGeometry x="792" y="286" width="459" height="308" as="geometry" />
        </mxCell>
        <mxCell id="GPM2MwPzyyPLJ8qWmuAz-152" value="Get a Report" style="ellipse;whiteSpace=wrap;html=1;" vertex="1" parent="GPM2MwPzyyPLJ8qWmuAz-151">
          <mxGeometry x="165" y="44" width="140" height="70" as="geometry" />
        </mxCell>
        <mxCell id="GPM2MwPzyyPLJ8qWmuAz-153" value="Send via Mail" style="ellipse;whiteSpace=wrap;html=1;" vertex="1" parent="GPM2MwPzyyPLJ8qWmuAz-151">
          <mxGeometry x="8" y="165" width="140" height="70" as="geometry" />
        </mxCell>
        <mxCell id="GPM2MwPzyyPLJ8qWmuAz-157" value="Send via SMS" style="ellipse;whiteSpace=wrap;html=1;" vertex="1" parent="GPM2MwPzyyPLJ8qWmuAz-151">
          <mxGeometry x="165" y="231" width="140" height="70" as="geometry" />
        </mxCell>
        <mxCell id="GPM2MwPzyyPLJ8qWmuAz-158" value="Save as a PDF" style="ellipse;whiteSpace=wrap;html=1;" vertex="1" parent="GPM2MwPzyyPLJ8qWmuAz-151">
          <mxGeometry x="316" y="161" width="140" height="70" as="geometry" />
        </mxCell>
        <mxCell id="GPM2MwPzyyPLJ8qWmuAz-159" value="&amp;lt;&amp;lt;extend&amp;gt;&amp;gt;" style="edgeStyle=none;rounded=0;orthogonalLoop=1;jettySize=auto;html=1;exitX=0.5;exitY=0;exitDx=0;exitDy=0;entryX=0.5;entryY=1;entryDx=0;entryDy=0;endArrow=open;endFill=0;dashed=1;" edge="1" parent="GPM2MwPzyyPLJ8qWmuAz-151" source="GPM2MwPzyyPLJ8qWmuAz-153" target="GPM2MwPzyyPLJ8qWmuAz-152">
          <mxGeometry relative="1" as="geometry">
            <mxPoint x="125" y="510" as="sourcePoint" />
            <mxPoint x="30" y="451" as="targetPoint" />
          </mxGeometry>
        </mxCell>
        <mxCell id="GPM2MwPzyyPLJ8qWmuAz-160" value="&amp;lt;&amp;lt;extend&amp;gt;&amp;gt;" style="edgeStyle=none;rounded=0;orthogonalLoop=1;jettySize=auto;html=1;exitX=0.5;exitY=0;exitDx=0;exitDy=0;endArrow=open;endFill=0;dashed=1;entryX=0.5;entryY=1;entryDx=0;entryDy=0;" edge="1" parent="GPM2MwPzyyPLJ8qWmuAz-151" source="GPM2MwPzyyPLJ8qWmuAz-157" target="GPM2MwPzyyPLJ8qWmuAz-152">
          <mxGeometry relative="1" as="geometry">
            <mxPoint x="136" y="521" as="sourcePoint" />
            <mxPoint x="228" y="121" as="targetPoint" />
          </mxGeometry>
        </mxCell>
        <mxCell id="GPM2MwPzyyPLJ8qWmuAz-161" value="&amp;lt;&amp;lt;extend&amp;gt;&amp;gt;" style="edgeStyle=none;rounded=0;orthogonalLoop=1;jettySize=auto;html=1;exitX=0.5;exitY=0;exitDx=0;exitDy=0;entryX=0.5;entryY=1;entryDx=0;entryDy=0;endArrow=open;endFill=0;dashed=1;" edge="1" parent="GPM2MwPzyyPLJ8qWmuAz-151" source="GPM2MwPzyyPLJ8qWmuAz-158" target="GPM2MwPzyyPLJ8qWmuAz-152">
          <mxGeometry relative="1" as="geometry">
            <mxPoint x="147" y="532" as="sourcePoint" />
            <mxPoint x="52" y="473" as="targetPoint" />
          </mxGeometry>
        </mxCell>
        <mxCell id="GPM2MwPzyyPLJ8qWmuAz-166" style="edgeStyle=none;rounded=0;orthogonalLoop=1;jettySize=auto;html=1;exitX=1;exitY=0.25;exitDx=0;exitDy=0;entryX=0;entryY=0.75;entryDx=0;entryDy=0;fillColor=#e51400;strokeColor=#B20000;endArrow=none;endFill=0;" edge="1" parent="1" source="GPM2MwPzyyPLJ8qWmuAz-34" target="GPM2MwPzyyPLJ8qWmuAz-95">
          <mxGeometry relative="1" as="geometry" />
        </mxCell>
        <mxCell id="GPM2MwPzyyPLJ8qWmuAz-170" style="edgeStyle=none;rounded=0;orthogonalLoop=1;jettySize=auto;html=1;exitX=0.5;exitY=0.5;exitDx=0;exitDy=0;exitPerimeter=0;entryX=0;entryY=0.5;entryDx=0;entryDy=0;endArrow=none;endFill=0;" edge="1" parent="1" source="GPM2MwPzyyPLJ8qWmuAz-168" target="GPM2MwPzyyPLJ8qWmuAz-152">
          <mxGeometry relative="1" as="geometry" />
        </mxCell>
        <mxCell id="GPM2MwPzyyPLJ8qWmuAz-168" value="User" style="shape=umlActor;html=1;verticalLabelPosition=bottom;verticalAlign=top;align=center;" vertex="1" parent="1">
          <mxGeometry x="737" y="363" width="30" height="60" as="geometry" />
        </mxCell>
        <mxCell id="GPM2MwPzyyPLJ8qWmuAz-175" style="edgeStyle=none;rounded=0;orthogonalLoop=1;jettySize=auto;html=1;exitX=1;exitY=0.3333333333333333;exitDx=0;exitDy=0;exitPerimeter=0;entryX=0.5;entryY=1;entryDx=0;entryDy=0;endArrow=none;endFill=0;" edge="1" parent="1" source="GPM2MwPzyyPLJ8qWmuAz-169" target="GPM2MwPzyyPLJ8qWmuAz-158">
          <mxGeometry relative="1" as="geometry" />
        </mxCell>
        <mxCell id="GPM2MwPzyyPLJ8qWmuAz-169" value="System" style="shape=umlActor;html=1;verticalLabelPosition=bottom;verticalAlign=top;align=center;" vertex="1" parent="1">
          <mxGeometry x="1012" y="660" width="30" height="60" as="geometry" />
        </mxCell>
        <mxCell id="GPM2MwPzyyPLJ8qWmuAz-172" style="edgeStyle=none;rounded=0;orthogonalLoop=1;jettySize=auto;html=1;exitX=0.5;exitY=1;exitDx=0;exitDy=0;entryX=0.5;entryY=0;entryDx=0;entryDy=0;entryPerimeter=0;endArrow=none;endFill=0;" edge="1" parent="1" source="GPM2MwPzyyPLJ8qWmuAz-157" target="GPM2MwPzyyPLJ8qWmuAz-169">
          <mxGeometry relative="1" as="geometry" />
        </mxCell>
        <mxCell id="GPM2MwPzyyPLJ8qWmuAz-176" style="edgeStyle=none;rounded=0;orthogonalLoop=1;jettySize=auto;html=1;exitX=0.5;exitY=1;exitDx=0;exitDy=0;entryX=0;entryY=0.3333333333333333;entryDx=0;entryDy=0;entryPerimeter=0;endArrow=none;endFill=0;" edge="1" parent="1" source="GPM2MwPzyyPLJ8qWmuAz-153" target="GPM2MwPzyyPLJ8qWmuAz-169">
          <mxGeometry relative="1" as="geometry" />
        </mxCell>
      </root>
    </mxGraphModel>
  </diagram>
</mxfile>
